<svg xmlns="http://www.w3.org/2000/svg" viewBox="0 0 400 220">
  <defs>
    <linearGradient id="bgNlp" x1="0" y1="0" x2="1" y2="1">
      <stop offset="0%" stop-color="#12181f"/>
      <stop offset="100%" stop-color="#1a2430"/>
    </linearGradient>
    <radialGradient id="glowNlp" cx="65%" cy="40%" r="55%">
      <stop offset="0%" stop-color="#4fd1c5" stop-opacity="0.28"/>
      <stop offset="100%" stop-color="#4fd1c5" stop-opacity="0"/>
    </radialGradient>
  </defs>
  <rect width="400" height="220" fill="url(#bgNlp)"/>
  <rect width="400" height="220" fill="url(#glowNlp)"/>
  <!-- speech bubble -->
  <path d="M90 60 h180 a14 14 0 0 1 14 14 v70 a14 14 0 0 1 -14 14 h-120 l-30 26 v-26 h-30 a14 14 0 0 1 -14 -14 v-70 a14 14 0 0 1 14 -14 z"
        fill="none" stroke="#9aa8b8" stroke-width="1.5"/>
  <!-- tokenised words -->
  <rect x="110" y="90" width="40" height="14" rx="7" fill="#4fd1c5" opacity="0.8"/>
  <rect x="156" y="90" width="60" height="14" rx="7" fill="#9aa8b8" opacity="0.7"/>
  <rect x="222" y="90" width="30" height="14" rx="7" fill="#4fd1c5" opacity="0.5"/>
  <rect x="110" y="114" width="70" height="14" rx="7" fill="#9aa8b8" opacity="0.7"/>
  <rect x="186" y="114" width="45" height="14" rx="7" fill="#4fd1c5" opacity="0.8"/>
  <rect x="110" y="138" width="35" height="14" rx="7" fill="#9aa8b8" opacity="0.6"/>
  <rect x="151" y="138" width="55" height="14" rx="7" fill="#4fd1c5" opacity="0.6"/>
</svg>
